<mxfile host="Electron" modified="2023-09-04T11:38:48.560Z" agent="Mozilla/5.0 (Macintosh; Intel Mac OS X 10_15_7) AppleWebKit/537.36 (KHTML, like Gecko) draw.io/21.6.8 Chrome/114.0.5735.289 Electron/25.5.0 Safari/537.36" etag="JwNXu1fCbFx9y4_2JFWJ" version="21.6.8" type="device">
  <diagram id="C5RBs43oDa-KdzZeNtuy" name="Page-1">
    <mxGraphModel dx="1251" dy="941" grid="1" gridSize="10" guides="1" tooltips="1" connect="1" arrows="1" fold="1" page="1" pageScale="1" pageWidth="827" pageHeight="1169" math="0" shadow="0">
      <root>
        <mxCell id="WIyWlLk6GJQsqaUBKTNV-0" />
        <mxCell id="WIyWlLk6GJQsqaUBKTNV-1" parent="WIyWlLk6GJQsqaUBKTNV-0" />
        <mxCell id="WIyWlLk6GJQsqaUBKTNV-2" value="" style="rounded=0;html=1;jettySize=auto;orthogonalLoop=1;fontSize=11;endArrow=block;endFill=0;endSize=8;strokeWidth=1;shadow=0;labelBackgroundColor=none;edgeStyle=orthogonalEdgeStyle;" parent="WIyWlLk6GJQsqaUBKTNV-1" source="WIyWlLk6GJQsqaUBKTNV-3" target="WIyWlLk6GJQsqaUBKTNV-6" edge="1">
          <mxGeometry relative="1" as="geometry" />
        </mxCell>
        <mxCell id="WIyWlLk6GJQsqaUBKTNV-3" value="Print instructions" style="rounded=1;whiteSpace=wrap;html=1;fontSize=12;glass=0;strokeWidth=1;shadow=0;" parent="WIyWlLk6GJQsqaUBKTNV-1" vertex="1">
          <mxGeometry x="393" y="198" width="120" height="40" as="geometry" />
        </mxCell>
        <mxCell id="WIyWlLk6GJQsqaUBKTNV-4" value="encode" style="rounded=0;html=1;jettySize=auto;orthogonalLoop=1;fontSize=11;endArrow=block;endFill=0;endSize=8;strokeWidth=1;shadow=0;labelBackgroundColor=none;edgeStyle=orthogonalEdgeStyle;entryX=1;entryY=0.5;entryDx=0;entryDy=0;" parent="WIyWlLk6GJQsqaUBKTNV-1" source="WIyWlLk6GJQsqaUBKTNV-6" target="WIyWlLk6GJQsqaUBKTNV-11" edge="1">
          <mxGeometry x="-0.0526" y="10" relative="1" as="geometry">
            <mxPoint as="offset" />
            <mxPoint x="309" y="358" as="targetPoint" />
          </mxGeometry>
        </mxCell>
        <mxCell id="WIyWlLk6GJQsqaUBKTNV-5" value="Other thing" style="edgeStyle=orthogonalEdgeStyle;rounded=0;html=1;jettySize=auto;orthogonalLoop=1;fontSize=11;endArrow=block;endFill=0;endSize=8;strokeWidth=1;shadow=0;labelBackgroundColor=none;entryX=1;entryY=0.5;entryDx=0;entryDy=0;" parent="WIyWlLk6GJQsqaUBKTNV-1" source="WIyWlLk6GJQsqaUBKTNV-6" target="WIyWlLk6GJQsqaUBKTNV-3" edge="1">
          <mxGeometry x="-0.6813" y="20" relative="1" as="geometry">
            <mxPoint as="offset" />
            <mxPoint x="619" y="408" as="targetPoint" />
            <Array as="points">
              <mxPoint x="629" y="358" />
              <mxPoint x="629" y="218" />
            </Array>
          </mxGeometry>
        </mxCell>
        <mxCell id="WIyWlLk6GJQsqaUBKTNV-6" value="Type &#39;encode&#39; to encrypt, type &#39;decode&#39; to decrypt:" style="rhombus;whiteSpace=wrap;html=1;shadow=0;fontFamily=Helvetica;fontSize=12;align=center;strokeWidth=1;spacing=6;spacingTop=-4;" parent="WIyWlLk6GJQsqaUBKTNV-1" vertex="1">
          <mxGeometry x="385" y="288" width="136" height="140" as="geometry" />
        </mxCell>
        <mxCell id="WIyWlLk6GJQsqaUBKTNV-11" value="Type your message:" style="rounded=1;whiteSpace=wrap;html=1;fontSize=12;glass=0;strokeWidth=1;shadow=0;" parent="WIyWlLk6GJQsqaUBKTNV-1" vertex="1">
          <mxGeometry x="139" y="338" width="120" height="40" as="geometry" />
        </mxCell>
        <mxCell id="-0zOBav0FHJqYzW3CsDU-0" value="" style="endArrow=classic;html=1;rounded=0;exitX=0.5;exitY=1;exitDx=0;exitDy=0;entryX=0.95;entryY=0.938;entryDx=0;entryDy=0;entryPerimeter=0;" parent="WIyWlLk6GJQsqaUBKTNV-1" source="WIyWlLk6GJQsqaUBKTNV-6" edge="1" target="WIyWlLk6GJQsqaUBKTNV-11">
          <mxGeometry width="50" height="50" relative="1" as="geometry">
            <mxPoint x="429" y="558" as="sourcePoint" />
            <mxPoint x="453" y="518" as="targetPoint" />
            <Array as="points">
              <mxPoint x="253" y="428" />
            </Array>
          </mxGeometry>
        </mxCell>
        <mxCell id="-0zOBav0FHJqYzW3CsDU-1" value="decode" style="edgeLabel;html=1;align=center;verticalAlign=middle;resizable=0;points=[];" parent="-0zOBav0FHJqYzW3CsDU-0" vertex="1" connectable="0">
          <mxGeometry x="0.4667" relative="1" as="geometry">
            <mxPoint x="61" y="20" as="offset" />
          </mxGeometry>
        </mxCell>
        <mxCell id="-0zOBav0FHJqYzW3CsDU-2" value="Type the shift number:" style="rounded=1;whiteSpace=wrap;html=1;" parent="WIyWlLk6GJQsqaUBKTNV-1" vertex="1">
          <mxGeometry x="139" y="468" width="120" height="40" as="geometry" />
        </mxCell>
        <mxCell id="-0zOBav0FHJqYzW3CsDU-3" value="" style="endArrow=classic;html=1;rounded=0;exitX=0.5;exitY=1;exitDx=0;exitDy=0;entryX=0.5;entryY=0;entryDx=0;entryDy=0;" parent="WIyWlLk6GJQsqaUBKTNV-1" source="WIyWlLk6GJQsqaUBKTNV-11" target="-0zOBav0FHJqYzW3CsDU-2" edge="1">
          <mxGeometry width="50" height="50" relative="1" as="geometry">
            <mxPoint x="429" y="558" as="sourcePoint" />
            <mxPoint x="479" y="508" as="targetPoint" />
          </mxGeometry>
        </mxCell>
        <mxCell id="-0zOBav0FHJqYzW3CsDU-4" value="message" style="edgeLabel;html=1;align=center;verticalAlign=middle;resizable=0;points=[];" parent="-0zOBav0FHJqYzW3CsDU-3" vertex="1" connectable="0">
          <mxGeometry x="0.2222" y="1" relative="1" as="geometry">
            <mxPoint x="-31" y="-5" as="offset" />
          </mxGeometry>
        </mxCell>
        <mxCell id="-hrLvS9ja_d8kkgViUKq-0" value="encode(message,shift)" style="rounded=1;whiteSpace=wrap;html=1;" vertex="1" parent="WIyWlLk6GJQsqaUBKTNV-1">
          <mxGeometry x="134" y="708" width="130" height="60" as="geometry" />
        </mxCell>
        <mxCell id="-hrLvS9ja_d8kkgViUKq-1" value="" style="endArrow=classic;html=1;rounded=0;exitX=0.5;exitY=1;exitDx=0;exitDy=0;entryX=0.5;entryY=0;entryDx=0;entryDy=0;" edge="1" parent="WIyWlLk6GJQsqaUBKTNV-1" source="-0zOBav0FHJqYzW3CsDU-2" target="-hrLvS9ja_d8kkgViUKq-12">
          <mxGeometry width="50" height="50" relative="1" as="geometry">
            <mxPoint x="429" y="558" as="sourcePoint" />
            <mxPoint x="479" y="508" as="targetPoint" />
          </mxGeometry>
        </mxCell>
        <mxCell id="-hrLvS9ja_d8kkgViUKq-2" value="shift" style="edgeLabel;html=1;align=center;verticalAlign=middle;resizable=0;points=[];" vertex="1" connectable="0" parent="-hrLvS9ja_d8kkgViUKq-1">
          <mxGeometry x="-0.1143" y="2" relative="1" as="geometry">
            <mxPoint x="18" as="offset" />
          </mxGeometry>
        </mxCell>
        <mxCell id="-hrLvS9ja_d8kkgViUKq-3" value="Here&#39;s the encoded result: xxx" style="rounded=1;whiteSpace=wrap;html=1;" vertex="1" parent="WIyWlLk6GJQsqaUBKTNV-1">
          <mxGeometry x="139" y="823" width="120" height="60" as="geometry" />
        </mxCell>
        <mxCell id="-hrLvS9ja_d8kkgViUKq-4" value="" style="endArrow=classic;html=1;rounded=0;exitX=0.5;exitY=1;exitDx=0;exitDy=0;entryX=0.5;entryY=0;entryDx=0;entryDy=0;" edge="1" parent="WIyWlLk6GJQsqaUBKTNV-1" source="-hrLvS9ja_d8kkgViUKq-0" target="-hrLvS9ja_d8kkgViUKq-3">
          <mxGeometry width="50" height="50" relative="1" as="geometry">
            <mxPoint x="429" y="558" as="sourcePoint" />
            <mxPoint x="479" y="508" as="targetPoint" />
          </mxGeometry>
        </mxCell>
        <mxCell id="-hrLvS9ja_d8kkgViUKq-5" value="&lt;br&gt;Type &#39;yes&#39; if you &lt;br&gt;want to go again. Otherwise type &lt;br&gt;&#39;no&#39;." style="rhombus;whiteSpace=wrap;html=1;" vertex="1" parent="WIyWlLk6GJQsqaUBKTNV-1">
          <mxGeometry x="385" y="788" width="136" height="130" as="geometry" />
        </mxCell>
        <mxCell id="-hrLvS9ja_d8kkgViUKq-6" value="" style="endArrow=classic;html=1;rounded=0;exitX=1;exitY=0.5;exitDx=0;exitDy=0;entryX=0;entryY=0.5;entryDx=0;entryDy=0;" edge="1" parent="WIyWlLk6GJQsqaUBKTNV-1" source="-hrLvS9ja_d8kkgViUKq-3" target="-hrLvS9ja_d8kkgViUKq-5">
          <mxGeometry width="50" height="50" relative="1" as="geometry">
            <mxPoint x="429" y="588" as="sourcePoint" />
            <mxPoint x="479" y="538" as="targetPoint" />
          </mxGeometry>
        </mxCell>
        <mxCell id="-hrLvS9ja_d8kkgViUKq-7" value="" style="endArrow=classic;html=1;rounded=0;exitX=1;exitY=0.5;exitDx=0;exitDy=0;entryX=1;entryY=0.5;entryDx=0;entryDy=0;" edge="1" parent="WIyWlLk6GJQsqaUBKTNV-1" source="-hrLvS9ja_d8kkgViUKq-5" target="WIyWlLk6GJQsqaUBKTNV-3">
          <mxGeometry width="50" height="50" relative="1" as="geometry">
            <mxPoint x="429" y="588" as="sourcePoint" />
            <mxPoint x="479" y="538" as="targetPoint" />
            <Array as="points">
              <mxPoint x="679" y="853" />
              <mxPoint x="679" y="218" />
            </Array>
          </mxGeometry>
        </mxCell>
        <mxCell id="-hrLvS9ja_d8kkgViUKq-8" value="yes" style="edgeLabel;html=1;align=center;verticalAlign=middle;resizable=0;points=[];" vertex="1" connectable="0" parent="-hrLvS9ja_d8kkgViUKq-7">
          <mxGeometry x="-0.8568" y="1" relative="1" as="geometry">
            <mxPoint y="-14" as="offset" />
          </mxGeometry>
        </mxCell>
        <mxCell id="-hrLvS9ja_d8kkgViUKq-9" value="Exit program" style="rounded=1;whiteSpace=wrap;html=1;" vertex="1" parent="WIyWlLk6GJQsqaUBKTNV-1">
          <mxGeometry x="393" y="958" width="120" height="60" as="geometry" />
        </mxCell>
        <mxCell id="-hrLvS9ja_d8kkgViUKq-10" value="" style="endArrow=classic;html=1;rounded=0;exitX=0.5;exitY=1;exitDx=0;exitDy=0;entryX=0.5;entryY=0;entryDx=0;entryDy=0;" edge="1" parent="WIyWlLk6GJQsqaUBKTNV-1" source="-hrLvS9ja_d8kkgViUKq-5" target="-hrLvS9ja_d8kkgViUKq-9">
          <mxGeometry width="50" height="50" relative="1" as="geometry">
            <mxPoint x="429" y="678" as="sourcePoint" />
            <mxPoint x="479" y="628" as="targetPoint" />
          </mxGeometry>
        </mxCell>
        <mxCell id="-hrLvS9ja_d8kkgViUKq-11" value="no" style="edgeLabel;html=1;align=center;verticalAlign=middle;resizable=0;points=[];" vertex="1" connectable="0" parent="-hrLvS9ja_d8kkgViUKq-10">
          <mxGeometry x="-0.0364" relative="1" as="geometry">
            <mxPoint x="16" y="1" as="offset" />
          </mxGeometry>
        </mxCell>
        <mxCell id="-hrLvS9ja_d8kkgViUKq-12" value="call related function" style="rhombus;whiteSpace=wrap;html=1;" vertex="1" parent="WIyWlLk6GJQsqaUBKTNV-1">
          <mxGeometry x="154" y="568" width="90" height="90" as="geometry" />
        </mxCell>
        <mxCell id="-hrLvS9ja_d8kkgViUKq-13" value="" style="endArrow=classic;html=1;rounded=0;exitX=0.5;exitY=1;exitDx=0;exitDy=0;entryX=0.5;entryY=0;entryDx=0;entryDy=0;" edge="1" parent="WIyWlLk6GJQsqaUBKTNV-1" source="-hrLvS9ja_d8kkgViUKq-12" target="-hrLvS9ja_d8kkgViUKq-0">
          <mxGeometry width="50" height="50" relative="1" as="geometry">
            <mxPoint x="429" y="628" as="sourcePoint" />
            <mxPoint x="479" y="578" as="targetPoint" />
          </mxGeometry>
        </mxCell>
        <mxCell id="-hrLvS9ja_d8kkgViUKq-14" value="encode" style="edgeLabel;html=1;align=center;verticalAlign=middle;resizable=0;points=[];" vertex="1" connectable="0" parent="-hrLvS9ja_d8kkgViUKq-13">
          <mxGeometry x="-0.24" y="1" relative="1" as="geometry">
            <mxPoint x="29" as="offset" />
          </mxGeometry>
        </mxCell>
        <mxCell id="-hrLvS9ja_d8kkgViUKq-15" value="decode(message,shift)" style="rounded=1;whiteSpace=wrap;html=1;" vertex="1" parent="WIyWlLk6GJQsqaUBKTNV-1">
          <mxGeometry x="385" y="583" width="136" height="60" as="geometry" />
        </mxCell>
        <mxCell id="-hrLvS9ja_d8kkgViUKq-16" value="" style="endArrow=classic;html=1;rounded=0;exitX=1;exitY=0.5;exitDx=0;exitDy=0;entryX=0;entryY=0.5;entryDx=0;entryDy=0;" edge="1" parent="WIyWlLk6GJQsqaUBKTNV-1" source="-hrLvS9ja_d8kkgViUKq-12" target="-hrLvS9ja_d8kkgViUKq-15">
          <mxGeometry width="50" height="50" relative="1" as="geometry">
            <mxPoint x="429" y="628" as="sourcePoint" />
            <mxPoint x="479" y="578" as="targetPoint" />
          </mxGeometry>
        </mxCell>
        <mxCell id="-hrLvS9ja_d8kkgViUKq-17" value="decode" style="edgeLabel;html=1;align=center;verticalAlign=middle;resizable=0;points=[];" vertex="1" connectable="0" parent="-hrLvS9ja_d8kkgViUKq-16">
          <mxGeometry x="-0.234" relative="1" as="geometry">
            <mxPoint x="11" y="-15" as="offset" />
          </mxGeometry>
        </mxCell>
        <mxCell id="-hrLvS9ja_d8kkgViUKq-18" value="Here&#39;s the decoded result: xxx" style="rounded=1;whiteSpace=wrap;html=1;" vertex="1" parent="WIyWlLk6GJQsqaUBKTNV-1">
          <mxGeometry x="393" y="688" width="120" height="60" as="geometry" />
        </mxCell>
        <mxCell id="-hrLvS9ja_d8kkgViUKq-19" value="" style="endArrow=classic;html=1;rounded=0;exitX=0.5;exitY=1;exitDx=0;exitDy=0;entryX=0.5;entryY=0;entryDx=0;entryDy=0;" edge="1" parent="WIyWlLk6GJQsqaUBKTNV-1" source="-hrLvS9ja_d8kkgViUKq-15" target="-hrLvS9ja_d8kkgViUKq-18">
          <mxGeometry width="50" height="50" relative="1" as="geometry">
            <mxPoint x="429" y="638" as="sourcePoint" />
            <mxPoint x="479" y="588" as="targetPoint" />
          </mxGeometry>
        </mxCell>
        <mxCell id="-hrLvS9ja_d8kkgViUKq-20" value="" style="endArrow=classic;html=1;rounded=0;exitX=0.5;exitY=1;exitDx=0;exitDy=0;entryX=0.5;entryY=0;entryDx=0;entryDy=0;" edge="1" parent="WIyWlLk6GJQsqaUBKTNV-1" source="-hrLvS9ja_d8kkgViUKq-18" target="-hrLvS9ja_d8kkgViUKq-5">
          <mxGeometry width="50" height="50" relative="1" as="geometry">
            <mxPoint x="429" y="638" as="sourcePoint" />
            <mxPoint x="479" y="588" as="targetPoint" />
          </mxGeometry>
        </mxCell>
        <mxCell id="-hrLvS9ja_d8kkgViUKq-21" value="print header" style="rounded=1;whiteSpace=wrap;html=1;" vertex="1" parent="WIyWlLk6GJQsqaUBKTNV-1">
          <mxGeometry x="393" y="128" width="120" height="40" as="geometry" />
        </mxCell>
        <mxCell id="-hrLvS9ja_d8kkgViUKq-22" value="" style="endArrow=classic;html=1;rounded=0;exitX=0.5;exitY=1;exitDx=0;exitDy=0;entryX=0.5;entryY=0;entryDx=0;entryDy=0;" edge="1" parent="WIyWlLk6GJQsqaUBKTNV-1" source="-hrLvS9ja_d8kkgViUKq-21" target="WIyWlLk6GJQsqaUBKTNV-3">
          <mxGeometry width="50" height="50" relative="1" as="geometry">
            <mxPoint x="429" y="398" as="sourcePoint" />
            <mxPoint x="479" y="348" as="targetPoint" />
          </mxGeometry>
        </mxCell>
      </root>
    </mxGraphModel>
  </diagram>
</mxfile>
